<svg width="22" height="22" viewBox="0 0 22 22" fill="none"
    xmlns="http://www.w3.org/2000/svg">
    <path d="M14.71 7.28996C14.6171 7.19623 14.5065 7.12183 14.3846 7.07107C14.2627 7.0203 14.132 6.99416 14 6.99416C13.868 6.99416 13.7373 7.0203 13.6154 7.07107C13.4936 7.12183 13.383 7.19623 13.29 7.28996L11 9.58996L8.71002 7.28996C8.52171 7.10165 8.26632 6.99587 8.00002 6.99587C7.73372 6.99587 7.47832 7.10165 7.29002 7.28996C7.10171 7.47826 6.99593 7.73366 6.99593 7.99996C6.99593 8.26626 7.10171 8.52165 7.29002 8.70996L9.59002 11L7.29002 13.29C7.19629 13.3829 7.1219 13.4935 7.07113 13.6154C7.02036 13.7372 6.99422 13.8679 6.99422 14C6.99422 14.132 7.02036 14.2627 7.07113 14.3845C7.1219 14.5064 7.19629 14.617 7.29002 14.71C7.38298 14.8037 7.49358 14.8781 7.61544 14.9288C7.7373 14.9796 7.86801 15.0058 8.00002 15.0058C8.13203 15.0058 8.26274 14.9796 8.38459 14.9288C8.50645 14.8781 8.61705 14.8037 8.71002 14.71L11 12.41L13.29 14.71C13.383 14.8037 13.4936 14.8781 13.6154 14.9288C13.7373 14.9796 13.868 15.0058 14 15.0058C14.132 15.0058 14.2627 14.9796 14.3846 14.9288C14.5065 14.8781 14.6171 14.8037 14.71 14.71C14.8037 14.617 14.8781 14.5064 14.9289 14.3845C14.9797 14.2627 15.0058 14.132 15.0058 14C15.0058 13.8679 14.9797 13.7372 14.9289 13.6154C14.8781 13.4935 14.8037 13.3829 14.71 13.29L12.41 11L14.71 8.70996C14.8037 8.61699 14.8781 8.50639 14.9289 8.38453C14.9797 8.26267 15.0058 8.13197 15.0058 7.99996C15.0058 7.86795 14.9797 7.73724 14.9289 7.61538C14.8781 7.49352 14.8037 7.38292 14.71 7.28996ZM18.07 3.92996C17.1476 2.97486 16.0441 2.21303 14.8241 1.68894C13.604 1.16485 12.2918 0.888991 10.964 0.877453C9.63624 0.865915 8.31944 1.11893 7.09048 1.62174C5.86151 2.12455 4.745 2.86708 3.80607 3.80601C2.86714 4.74493 2.12461 5.86145 1.6218 7.09042C1.11899 8.31938 0.865976 9.63618 0.877514 10.964C0.889052 12.2918 1.16491 13.604 1.689 14.824C2.21309 16.044 2.97492 17.1475 3.93002 18.07C4.85249 19.0251 5.95593 19.7869 7.17597 20.311C8.39601 20.8351 9.70821 21.1109 11.036 21.1225C12.3638 21.134 13.6806 20.881 14.9096 20.3782C16.1385 19.8754 17.255 19.1328 18.194 18.1939C19.1329 17.255 19.8754 16.1385 20.3782 14.9095C20.881 13.6805 21.1341 12.3637 21.1225 11.0359C21.111 9.70815 20.8351 8.39595 20.311 7.17591C19.7869 5.95587 19.0251 4.85243 18.07 3.92996ZM16.66 16.66C15.3521 17.9694 13.6306 18.7848 11.7888 18.9673C9.94707 19.1497 8.09902 18.688 6.55954 17.6607C5.02006 16.6334 3.88438 15.1042 3.34599 13.3334C2.80761 11.5627 2.89982 9.6601 3.60693 7.94974C4.31404 6.23938 5.59229 4.82711 7.22391 3.95352C8.85553 3.07993 10.7396 2.79909 12.555 3.15883C14.3705 3.51857 16.0051 4.49665 17.1803 5.92642C18.3555 7.35619 18.9986 9.14919 19 11C19.0036 12.0512 18.7986 13.0928 18.3969 14.0643C17.9953 15.0359 17.4049 15.9181 16.66 16.66Z" fill="#FF3843"/>
</svg>
