<svg width="32" height="40" viewBox="0 0 32 40" fill="none"
    xmlns="http://www.w3.org/2000/svg">
    <path d="M10 16H12C12.5304 16 13.0391 15.7893 13.4142 15.4142C13.7893 15.0391 14 14.5304 14 14C14 13.4696 13.7893 12.9609 13.4142 12.5858C13.0391 12.2107 12.5304 12 12 12H10C9.46957 12 8.96086 12.2107 8.58579 12.5858C8.21071 12.9609 8 13.4696 8 14C8 14.5304 8.21071 15.0391 8.58579 15.4142C8.96086 15.7893 9.46957 16 10 16ZM10 20C9.46957 20 8.96086 20.2107 8.58579 20.5858C8.21071 20.9609 8 21.4696 8 22C8 22.5304 8.21071 23.0391 8.58579 23.4142C8.96086 23.7893 9.46957 24 10 24H22C22.5304 24 23.0391 23.7893 23.4142 23.4142C23.7893 23.0391 24 22.5304 24 22C24 21.4696 23.7893 20.9609 23.4142 20.5858C23.0391 20.2107 22.5304 20 22 20H10ZM32 13.88C31.9792 13.6963 31.9389 13.5153 31.88 13.34V13.16C31.7838 12.9544 31.6556 12.7653 31.5 12.6L19.5 0.6C19.3347 0.444432 19.1456 0.316162 18.94 0.22C18.8803 0.21152 18.8197 0.21152 18.76 0.22C18.5568 0.103482 18.3324 0.0286884 18.1 0H6C4.4087 0 2.88258 0.632141 1.75736 1.75736C0.632141 2.88258 0 4.4087 0 6V34C0 35.5913 0.632141 37.1174 1.75736 38.2426C2.88258 39.3679 4.4087 40 6 40H26C27.5913 40 29.1174 39.3679 30.2426 38.2426C31.3679 37.1174 32 35.5913 32 34V13.88ZM20 6.82L25.18 12H22C21.4696 12 20.9609 11.7893 20.5858 11.4142C20.2107 11.0391 20 10.5304 20 10V6.82ZM28 34C28 34.5304 27.7893 35.0391 27.4142 35.4142C27.0391 35.7893 26.5304 36 26 36H6C5.46957 36 4.96086 35.7893 4.58579 35.4142C4.21071 35.0391 4 34.5304 4 34V6C4 5.46957 4.21071 4.96086 4.58579 4.58579C4.96086 4.21071 5.46957 4 6 4H16V10C16 11.5913 16.6321 13.1174 17.7574 14.2426C18.8826 15.3679 20.4087 16 22 16H28V34ZM22 28H10C9.46957 28 8.96086 28.2107 8.58579 28.5858C8.21071 28.9609 8 29.4696 8 30C8 30.5304 8.21071 31.0391 8.58579 31.4142C8.96086 31.7893 9.46957 32 10 32H22C22.5304 32 23.0391 31.7893 23.4142 31.4142C23.7893 31.0391 24 30.5304 24 30C24 29.4696 23.7893 28.9609 23.4142 28.5858C23.0391 28.2107 22.5304 28 22 28Z" fill="#409FFF"/>
</svg>
