<svg width="52" height="48" viewBox="0 0 52 48" fill="none"
    xmlns="http://www.w3.org/2000/svg">
    <path d="M16.9532 25.3502L19.0178 12.379C18.1749 12.379 16.7637 12.379 16.7637 12.379C15.7314 12.379 14.3771 11.8288 13.9509 10.7657C13.8088 10.3927 13.5247 9.15245 15.2673 7.9495C15.8735 7.52987 16.2997 7.07294 16.347 6.69993C16.4417 6.32693 16.347 6.00987 16.0629 5.73012C15.7314 5.40374 14.9832 5.17993 14.0456 5.17993C12.4545 5.17993 11.3275 6.10312 11.2328 6.74656C11.138 7.25012 11.5642 7.62312 11.8862 7.85625C12.8712 8.59294 13.108 9.65601 12.4924 10.6724C11.8389 11.6889 10.4751 12.379 9.02604 12.379C9.02604 12.379 7.577 12.379 6.72463 12.379C6.53521 13.6285 3.43824 33.0155 3.21094 34.5355H15.5988C15.6462 33.8921 16.205 30.1993 16.9532 25.3502Z" fill="#459BBE"/>
    <path d="M33.5085 1.021H20.9407L19.2549 11.5025H21.4142C22.5886 11.5025 23.7157 10.9989 24.1797 10.2063C24.3218 9.97314 24.4165 9.74002 24.4165 9.56284C24.4165 9.14321 24.1324 8.77952 23.8104 8.59302C22.9675 7.99621 22.8254 7.34345 22.8254 6.88652C22.8254 6.79327 22.8254 6.70002 22.8254 6.65339C23.0148 5.5437 24.5112 4.34075 26.5285 4.34075C27.7502 4.34075 28.6405 4.62051 29.1993 5.12406C29.6728 5.59032 29.9001 6.23376 29.7581 6.87719C29.5686 7.66051 28.7731 8.30394 28.309 8.63032C27.0873 9.46026 27.2293 10.1969 27.324 10.4301C27.5608 11.0735 28.5458 11.4931 29.294 11.4931H32.5804C37.0317 11.5398 39.4278 13.526 38.6322 18.2352C37.9314 22.5714 34.5503 24.4644 30.5252 24.5111L28.8394 34.5263H31.1882C41.1704 34.5263 49.2869 28.2038 50.9254 18.2725C52.9143 5.96333 44.9493 1.021 33.5085 1.021Z" fill="#235971"/>
    <path d="M2.52006 39.0115H7.58697C9.74633 39.0115 10.2578 40.0745 10.1157 41.091C9.97363 41.8743 9.4622 42.4804 8.47723 42.8441C9.69897 43.3104 10.163 44.0004 9.97363 45.1101C9.73686 46.4995 8.52459 47.5067 6.92401 47.5067H1.15625L2.52006 39.0115ZM5.84433 42.5643C6.8293 42.5643 7.29337 42.0608 7.38808 41.4547C7.48279 40.8112 7.19867 40.345 6.21369 40.345H5.32343L4.9446 42.5643H5.84433ZM5.28555 46.2571C6.31787 46.2571 6.87666 45.8375 7.01872 45.0075C7.11343 44.3175 6.73459 43.8512 5.74962 43.8512H4.76465L4.38582 46.2478H5.28555V46.2571Z" fill="#235971"/>
    <path d="M17.001 47.6C15.6846 47.6932 15.0311 47.5534 14.747 47.0032C14.0461 47.4228 13.2979 47.6466 12.4455 47.6466C10.9491 47.6466 10.4282 46.9099 10.5703 46.0334C10.6177 45.6137 10.8544 45.25 11.2712 44.9237C12.0667 44.2336 14.1314 44.1404 14.9269 43.5808C14.9743 42.984 14.7375 42.7509 13.9893 42.7509C13.099 42.7509 12.3982 43.0307 11.1291 43.8606L11.4132 41.921C12.4929 41.1377 13.5252 40.8113 14.7375 40.8113C16.2812 40.8113 17.645 41.4081 17.3609 43.0773L17.0768 44.9703C16.9821 45.6137 16.9821 45.8469 17.7303 45.8469L17.001 47.6ZM14.7564 44.6905C14.0556 45.1102 12.7391 45.0635 12.5971 45.9401C12.5497 46.3597 12.7865 46.6768 13.2032 46.6768C13.6199 46.6768 14.1408 46.4903 14.5197 46.2105C14.4723 46.0707 14.5197 45.8842 14.567 45.6137L14.7564 44.6905Z" fill="#235971"/>
    <path d="M19.4918 40.9509H22.1152L21.9732 41.8275C22.8161 41.1374 23.4222 40.8577 24.2746 40.8577C25.7236 40.8577 26.4339 41.7342 26.1972 43.2076L25.4869 47.5531H22.8634L23.4222 43.9536C23.5169 43.3102 23.3275 42.9838 22.8161 42.9838C22.3899 42.9838 22.0205 43.2169 21.6417 43.6739L21.0355 47.5065H18.4121L19.4918 40.9509Z" fill="#235971"/>
    <path d="M28.2523 39.0115H30.8852L30.2317 43.2078L32.7604 40.9418H35.9994L32.7604 43.758L35.3364 47.5533H32.0122L29.9949 44.504H29.9475L29.474 47.5533H26.8506L28.2523 39.0115Z" fill="#235971"/>
    <path d="M2.52006 39.0115H7.58697C9.74633 39.0115 10.2578 40.0745 10.1157 41.091C9.97363 41.8743 9.4622 42.4804 8.47723 42.8441C9.69897 43.3104 10.163 44.0004 9.97363 45.1101C9.73686 46.4995 8.52459 47.5067 6.92401 47.5067H1.15625L2.52006 39.0115ZM5.84433 42.5643C6.8293 42.5643 7.29337 42.0608 7.38808 41.4547C7.48279 40.8112 7.19867 40.345 6.21369 40.345H5.32343L4.9446 42.5643H5.84433ZM5.28555 46.2571C6.31787 46.2571 6.87666 45.8375 7.01872 45.0075C7.11343 44.3175 6.73459 43.8512 5.74962 43.8512H4.76465L4.38582 46.2478H5.28555V46.2571Z" fill="#235971"/>
    <path d="M17.001 47.6C15.6846 47.6932 15.0311 47.5534 14.747 47.0032C14.0461 47.4228 13.2979 47.6466 12.4455 47.6466C10.9491 47.6466 10.4282 46.9099 10.5703 46.0334C10.6177 45.6137 10.8544 45.25 11.2712 44.9237C12.0667 44.2336 14.1314 44.1404 14.9269 43.5808C14.9743 42.984 14.7375 42.7509 13.9893 42.7509C13.099 42.7509 12.3982 43.0307 11.1291 43.8606L11.4132 41.921C12.4929 41.1377 13.5252 40.8113 14.7375 40.8113C16.2812 40.8113 17.645 41.4081 17.3609 43.0773L17.0768 44.9703C16.9821 45.6137 16.9821 45.8469 17.7303 45.8469L17.001 47.6ZM14.7564 44.6905C14.0556 45.1102 12.7391 45.0635 12.5971 45.9401C12.5497 46.3597 12.7865 46.6768 13.2032 46.6768C13.6199 46.6768 14.1408 46.4903 14.5197 46.2105C14.4723 46.0707 14.5197 45.8842 14.567 45.6137L14.7564 44.6905Z" fill="#235971"/>
    <path d="M19.4918 40.9509H22.1152L21.9732 41.8275C22.8161 41.1374 23.4222 40.8577 24.2746 40.8577C25.7236 40.8577 26.4339 41.7342 26.1972 43.2076L25.4869 47.5531H22.8634L23.4222 43.9536C23.5169 43.3102 23.3275 42.9838 22.8161 42.9838C22.3899 42.9838 22.0205 43.2169 21.6417 43.6739L21.0355 47.5065H18.4121L19.4918 40.9509Z" fill="#235971"/>
    <path d="M28.2523 39.0115H30.8852L30.2317 43.2078L32.7604 40.9418H35.9994L32.7604 43.758L35.3364 47.5533H32.0122L29.9949 44.504H29.9475L29.474 47.5533H26.8506L28.2523 39.0115Z" fill="#235971"/>
    <path d="M37.543 39.0115H40.5926L39.2288 47.5067H36.1792L37.543 39.0115Z" fill="#459BBE"/>
    <path d="M42.0415 39.0115H46.3508C49.6751 39.0115 50.66 41.408 50.338 43.3943C50.0539 45.3339 48.4628 47.5533 45.5552 47.5533H40.7251L42.0415 39.0115ZM44.8544 45.5204C46.3034 45.5204 47.1558 44.8303 47.3831 43.301C47.5725 42.1913 47.1937 41.0817 45.6026 41.0817H44.7597L44.0588 45.5577L44.8544 45.5204Z" fill="#459BBE"/>
</svg>
